<mxfile host="app.diagrams.net" modified="2023-06-08T07:39:24.937Z" agent="Mozilla/5.0 (Windows NT 10.0; Win64; x64) AppleWebKit/537.36 (KHTML, like Gecko) Chrome/114.0.0.0 Safari/537.36" etag="WoyYGRVYuMQQ8kdbcIWg" version="21.3.7" type="device">
  <diagram id="C5RBs43oDa-KdzZeNtuy" name="Page-1">
    <mxGraphModel dx="464" dy="253" grid="1" gridSize="10" guides="1" tooltips="1" connect="1" arrows="1" fold="1" page="1" pageScale="1" pageWidth="827" pageHeight="1169" background="#ffffff" math="0" shadow="0">
      <root>
        <mxCell id="WIyWlLk6GJQsqaUBKTNV-0" />
        <mxCell id="WIyWlLk6GJQsqaUBKTNV-1" parent="WIyWlLk6GJQsqaUBKTNV-0" />
        <mxCell id="WIyWlLk6GJQsqaUBKTNV-6" value="Login" style="rhombus;whiteSpace=wrap;html=1;shadow=0;fontFamily=Helvetica;fontSize=13;align=center;strokeWidth=1;spacing=6;spacingTop=-4;fillColor=#fad7ac;strokeColor=#b46504;fontStyle=1" parent="WIyWlLk6GJQsqaUBKTNV-1" vertex="1">
          <mxGeometry x="352.5" y="280" width="95" height="75" as="geometry" />
        </mxCell>
        <mxCell id="tSJoqXPQ7HKr7nPUj63I-56" style="edgeStyle=orthogonalEdgeStyle;rounded=0;orthogonalLoop=1;jettySize=auto;html=1;exitX=0.5;exitY=1;exitDx=0;exitDy=0;entryX=0.5;entryY=0;entryDx=0;entryDy=0;" edge="1" parent="WIyWlLk6GJQsqaUBKTNV-1" source="tSJoqXPQ7HKr7nPUj63I-12" target="tSJoqXPQ7HKr7nPUj63I-49">
          <mxGeometry relative="1" as="geometry">
            <Array as="points">
              <mxPoint x="400" y="440" />
            </Array>
          </mxGeometry>
        </mxCell>
        <mxCell id="tSJoqXPQ7HKr7nPUj63I-12" value="Homepage" style="rounded=0;whiteSpace=wrap;html=1;fillColor=#ffff88;strokeColor=#36393d;fontStyle=1;fontSize=13;" vertex="1" parent="WIyWlLk6GJQsqaUBKTNV-1">
          <mxGeometry x="352.5" y="410" width="100" height="30" as="geometry" />
        </mxCell>
        <mxCell id="tSJoqXPQ7HKr7nPUj63I-16" value="KnowFuture" style="rounded=1;whiteSpace=wrap;html=1;fillColor=#e1d5e7;strokeColor=#9673a6;fontSize=15;fontStyle=1" vertex="1" parent="WIyWlLk6GJQsqaUBKTNV-1">
          <mxGeometry x="270" y="10" width="290" height="30" as="geometry" />
        </mxCell>
        <mxCell id="tSJoqXPQ7HKr7nPUj63I-40" style="edgeStyle=orthogonalEdgeStyle;rounded=0;orthogonalLoop=1;jettySize=auto;html=1;exitX=0.5;exitY=1;exitDx=0;exitDy=0;entryX=0.5;entryY=0;entryDx=0;entryDy=0;" edge="1" parent="WIyWlLk6GJQsqaUBKTNV-1" source="tSJoqXPQ7HKr7nPUj63I-19" target="WIyWlLk6GJQsqaUBKTNV-6">
          <mxGeometry relative="1" as="geometry" />
        </mxCell>
        <mxCell id="tSJoqXPQ7HKr7nPUj63I-19" value="User" style="rounded=0;whiteSpace=wrap;html=1;fillColor=#dae8fc;strokeColor=#6c8ebf;fontStyle=1;fontSize=13;" vertex="1" parent="WIyWlLk6GJQsqaUBKTNV-1">
          <mxGeometry x="366.25" y="170" width="67.5" height="30" as="geometry" />
        </mxCell>
        <mxCell id="tSJoqXPQ7HKr7nPUj63I-21" value="Registration" style="rounded=0;whiteSpace=wrap;html=1;fillColor=#ffff88;strokeColor=#36393d;fontSize=13;fontStyle=1" vertex="1" parent="WIyWlLk6GJQsqaUBKTNV-1">
          <mxGeometry x="560" y="300.63" width="100" height="33.75" as="geometry" />
        </mxCell>
        <mxCell id="tSJoqXPQ7HKr7nPUj63I-61" style="edgeStyle=orthogonalEdgeStyle;rounded=0;orthogonalLoop=1;jettySize=auto;html=1;exitX=1;exitY=0.5;exitDx=0;exitDy=0;" edge="1" parent="WIyWlLk6GJQsqaUBKTNV-1" source="tSJoqXPQ7HKr7nPUj63I-23">
          <mxGeometry relative="1" as="geometry">
            <mxPoint x="400" y="740" as="targetPoint" />
          </mxGeometry>
        </mxCell>
        <mxCell id="tSJoqXPQ7HKr7nPUj63I-23" value="Today Panchag" style="rounded=0;whiteSpace=wrap;html=1;fillColor=#cdeb8b;strokeColor=#36393d;fontStyle=1;fontSize=13;" vertex="1" parent="WIyWlLk6GJQsqaUBKTNV-1">
          <mxGeometry x="180" y="720" width="100" height="40" as="geometry" />
        </mxCell>
        <mxCell id="tSJoqXPQ7HKr7nPUj63I-57" style="edgeStyle=orthogonalEdgeStyle;rounded=0;orthogonalLoop=1;jettySize=auto;html=1;exitX=1;exitY=0.5;exitDx=0;exitDy=0;" edge="1" parent="WIyWlLk6GJQsqaUBKTNV-1" source="tSJoqXPQ7HKr7nPUj63I-24">
          <mxGeometry relative="1" as="geometry">
            <mxPoint x="400" y="499.8484848484849" as="targetPoint" />
          </mxGeometry>
        </mxCell>
        <mxCell id="tSJoqXPQ7HKr7nPUj63I-24" value="Subh-muhurat" style="rounded=0;whiteSpace=wrap;html=1;fillColor=#cdeb8b;strokeColor=#36393d;fontStyle=1;fontSize=13;" vertex="1" parent="WIyWlLk6GJQsqaUBKTNV-1">
          <mxGeometry x="180" y="480" width="100" height="40" as="geometry" />
        </mxCell>
        <mxCell id="tSJoqXPQ7HKr7nPUj63I-59" style="edgeStyle=orthogonalEdgeStyle;rounded=0;orthogonalLoop=1;jettySize=auto;html=1;" edge="1" parent="WIyWlLk6GJQsqaUBKTNV-1" source="tSJoqXPQ7HKr7nPUj63I-25">
          <mxGeometry relative="1" as="geometry">
            <mxPoint x="400" y="620" as="targetPoint" />
          </mxGeometry>
        </mxCell>
        <mxCell id="tSJoqXPQ7HKr7nPUj63I-25" value="Festival&lt;br style=&quot;font-size: 13px;&quot;&gt;Calendar" style="rounded=0;whiteSpace=wrap;html=1;fillColor=#cdeb8b;strokeColor=#36393d;fontStyle=1;fontSize=13;" vertex="1" parent="WIyWlLk6GJQsqaUBKTNV-1">
          <mxGeometry x="180" y="600" width="100" height="40" as="geometry" />
        </mxCell>
        <mxCell id="tSJoqXPQ7HKr7nPUj63I-60" style="edgeStyle=orthogonalEdgeStyle;rounded=0;orthogonalLoop=1;jettySize=auto;html=1;exitX=0;exitY=0.5;exitDx=0;exitDy=0;" edge="1" parent="WIyWlLk6GJQsqaUBKTNV-1" source="tSJoqXPQ7HKr7nPUj63I-26">
          <mxGeometry relative="1" as="geometry">
            <mxPoint x="400" y="680" as="targetPoint" />
          </mxGeometry>
        </mxCell>
        <mxCell id="tSJoqXPQ7HKr7nPUj63I-26" value="Vastu &lt;br style=&quot;font-size: 13px;&quot;&gt;Shastra" style="rounded=0;whiteSpace=wrap;html=1;fillColor=#cdeb8b;strokeColor=#36393d;fontStyle=1;fontSize=13;" vertex="1" parent="WIyWlLk6GJQsqaUBKTNV-1">
          <mxGeometry x="520" y="660" width="100" height="40" as="geometry" />
        </mxCell>
        <mxCell id="tSJoqXPQ7HKr7nPUj63I-58" style="edgeStyle=orthogonalEdgeStyle;rounded=0;orthogonalLoop=1;jettySize=auto;html=1;" edge="1" parent="WIyWlLk6GJQsqaUBKTNV-1" source="tSJoqXPQ7HKr7nPUj63I-27">
          <mxGeometry relative="1" as="geometry">
            <mxPoint x="400" y="560" as="targetPoint" />
          </mxGeometry>
        </mxCell>
        <mxCell id="tSJoqXPQ7HKr7nPUj63I-27" value="Horoscope&lt;br style=&quot;font-size: 13px;&quot;&gt;Matching" style="rounded=0;whiteSpace=wrap;html=1;fillColor=#cdeb8b;strokeColor=#36393d;fontStyle=1;fontSize=13;" vertex="1" parent="WIyWlLk6GJQsqaUBKTNV-1">
          <mxGeometry x="520" y="540" width="100" height="40" as="geometry" />
        </mxCell>
        <mxCell id="tSJoqXPQ7HKr7nPUj63I-41" value="" style="endArrow=classic;html=1;rounded=0;exitX=1;exitY=0.5;exitDx=0;exitDy=0;entryX=0;entryY=0.5;entryDx=0;entryDy=0;fontStyle=1" edge="1" parent="WIyWlLk6GJQsqaUBKTNV-1" source="WIyWlLk6GJQsqaUBKTNV-6" target="tSJoqXPQ7HKr7nPUj63I-21">
          <mxGeometry relative="1" as="geometry">
            <mxPoint x="500" y="270" as="sourcePoint" />
            <mxPoint x="600" y="270" as="targetPoint" />
          </mxGeometry>
        </mxCell>
        <mxCell id="tSJoqXPQ7HKr7nPUj63I-42" value="&lt;b&gt;&lt;font style=&quot;font-size: 12px;&quot;&gt;No&lt;/font&gt;&lt;/b&gt;" style="edgeLabel;resizable=0;html=1;align=center;verticalAlign=middle;" connectable="0" vertex="1" parent="tSJoqXPQ7HKr7nPUj63I-41">
          <mxGeometry relative="1" as="geometry">
            <mxPoint x="2" as="offset" />
          </mxGeometry>
        </mxCell>
        <mxCell id="tSJoqXPQ7HKr7nPUj63I-43" value="" style="endArrow=classic;html=1;rounded=0;exitX=0.5;exitY=1;exitDx=0;exitDy=0;entryX=0.47;entryY=0.034;entryDx=0;entryDy=0;entryPerimeter=0;" edge="1" parent="WIyWlLk6GJQsqaUBKTNV-1" source="WIyWlLk6GJQsqaUBKTNV-6" target="tSJoqXPQ7HKr7nPUj63I-12">
          <mxGeometry relative="1" as="geometry">
            <mxPoint x="370" y="300" as="sourcePoint" />
            <mxPoint x="470" y="300" as="targetPoint" />
          </mxGeometry>
        </mxCell>
        <mxCell id="tSJoqXPQ7HKr7nPUj63I-44" value="&lt;b&gt;&lt;font style=&quot;font-size: 12px;&quot;&gt;Yes&lt;/font&gt;&lt;/b&gt;" style="edgeLabel;resizable=0;html=1;align=center;verticalAlign=middle;" connectable="0" vertex="1" parent="tSJoqXPQ7HKr7nPUj63I-43">
          <mxGeometry relative="1" as="geometry" />
        </mxCell>
        <mxCell id="tSJoqXPQ7HKr7nPUj63I-46" value="" style="endArrow=classic;html=1;rounded=0;exitX=0.5;exitY=0;exitDx=0;exitDy=0;" edge="1" parent="WIyWlLk6GJQsqaUBKTNV-1" source="tSJoqXPQ7HKr7nPUj63I-21">
          <mxGeometry relative="1" as="geometry">
            <mxPoint x="430" y="260" as="sourcePoint" />
            <mxPoint x="400" y="240" as="targetPoint" />
            <Array as="points">
              <mxPoint x="610" y="240" />
            </Array>
          </mxGeometry>
        </mxCell>
        <mxCell id="tSJoqXPQ7HKr7nPUj63I-66" style="edgeStyle=orthogonalEdgeStyle;rounded=0;orthogonalLoop=1;jettySize=auto;html=1;exitX=0.5;exitY=1;exitDx=0;exitDy=0;" edge="1" parent="WIyWlLk6GJQsqaUBKTNV-1" source="tSJoqXPQ7HKr7nPUj63I-49" target="tSJoqXPQ7HKr7nPUj63I-65">
          <mxGeometry relative="1" as="geometry" />
        </mxCell>
        <mxCell id="tSJoqXPQ7HKr7nPUj63I-49" value="Logout" style="rounded=0;whiteSpace=wrap;html=1;fillColor=#dae8fc;strokeColor=#6c8ebf;fontStyle=1;fontSize=13;" vertex="1" parent="WIyWlLk6GJQsqaUBKTNV-1">
          <mxGeometry x="347.5" y="880" width="105" height="30" as="geometry" />
        </mxCell>
        <mxCell id="tSJoqXPQ7HKr7nPUj63I-55" style="edgeStyle=orthogonalEdgeStyle;rounded=0;orthogonalLoop=1;jettySize=auto;html=1;exitX=0.5;exitY=1;exitDx=0;exitDy=0;" edge="1" parent="WIyWlLk6GJQsqaUBKTNV-1" source="tSJoqXPQ7HKr7nPUj63I-25" target="tSJoqXPQ7HKr7nPUj63I-25">
          <mxGeometry relative="1" as="geometry" />
        </mxCell>
        <mxCell id="tSJoqXPQ7HKr7nPUj63I-64" style="edgeStyle=orthogonalEdgeStyle;rounded=0;orthogonalLoop=1;jettySize=auto;html=1;exitX=0.5;exitY=1;exitDx=0;exitDy=0;entryX=0.5;entryY=0;entryDx=0;entryDy=0;" edge="1" parent="WIyWlLk6GJQsqaUBKTNV-1" source="tSJoqXPQ7HKr7nPUj63I-63" target="tSJoqXPQ7HKr7nPUj63I-19">
          <mxGeometry relative="1" as="geometry" />
        </mxCell>
        <mxCell id="tSJoqXPQ7HKr7nPUj63I-63" value="Start" style="rounded=1;whiteSpace=wrap;html=1;fillColor=#f8cecc;strokeColor=#b85450;fillStyle=auto;fontStyle=1;fontSize=13;" vertex="1" parent="WIyWlLk6GJQsqaUBKTNV-1">
          <mxGeometry x="368.75" y="90" width="62.5" height="30" as="geometry" />
        </mxCell>
        <mxCell id="tSJoqXPQ7HKr7nPUj63I-65" value="End" style="rounded=1;whiteSpace=wrap;html=1;fillColor=#f8cecc;strokeColor=#b85450;fontStyle=1;fontSize=13;" vertex="1" parent="WIyWlLk6GJQsqaUBKTNV-1">
          <mxGeometry x="366.88" y="960" width="66.25" height="30" as="geometry" />
        </mxCell>
        <mxCell id="tSJoqXPQ7HKr7nPUj63I-68" style="edgeStyle=orthogonalEdgeStyle;rounded=0;orthogonalLoop=1;jettySize=auto;html=1;exitX=0;exitY=0.5;exitDx=0;exitDy=0;" edge="1" parent="WIyWlLk6GJQsqaUBKTNV-1" source="tSJoqXPQ7HKr7nPUj63I-67">
          <mxGeometry relative="1" as="geometry">
            <mxPoint x="400" y="800.2903225806451" as="targetPoint" />
          </mxGeometry>
        </mxCell>
        <mxCell id="tSJoqXPQ7HKr7nPUj63I-67" value="Love&lt;br style=&quot;font-size: 13px;&quot;&gt;Compatibility" style="rounded=0;whiteSpace=wrap;html=1;fillColor=#cdeb8b;strokeColor=#36393d;fontStyle=1;fontSize=13;" vertex="1" parent="WIyWlLk6GJQsqaUBKTNV-1">
          <mxGeometry x="520" y="780" width="100" height="40" as="geometry" />
        </mxCell>
      </root>
    </mxGraphModel>
  </diagram>
</mxfile>
